HIERARCHY
ROOT Hips
{
	OFFSET 0.000000 71.427986 0.000000
	CHANNELS 6 Xposition Yposition Zposition Xrotation Yrotation Zrotation
	JOINT Pelvis
	{
		OFFSET 0.000000 0.000000 0.000000
		CHANNELS 3 Xrotation Yrotation Zrotation
		JOINT LeftUpLeg
		{
			OFFSET 6.797100 -2.508499 -1.318700
			CHANNELS 3 Xrotation Yrotation Zrotation
			JOINT LeftLeg
			{
				OFFSET 0.069008 -29.241863 0.690200
				CHANNELS 3 Xrotation Yrotation Zrotation
				JOINT LeftFoot
				{
					OFFSET -0.069008 -29.568123 -0.266800
					CHANNELS 3 Xrotation Yrotation Zrotation
					JOINT LeftToeBase
					{
						OFFSET 3.145500 -8.631000 16.059900
						CHANNELS 3 Xrotation Yrotation Zrotation
						End Site
						{
							OFFSET 0.000000 18.501587 0.000000
						}
					}
				}
			}
			JOINT Left_ShortSleeve
			{
				OFFSET 0.265923 -10.480953 1.153800
				CHANNELS 3 Xrotation Yrotation Zrotation
				End Site
				{
					OFFSET 1.725763 19.823879 0.000000
				}
			}
		}
		JOINT RightUpLeg
		{
			OFFSET -6.797100 -2.508499 -1.318700
			CHANNELS 3 Xrotation Yrotation Zrotation
			JOINT RightLeg
			{
				OFFSET -0.082453 -29.241932 0.688000
				CHANNELS 3 Xrotation Yrotation Zrotation
				JOINT RightFoot
				{
					OFFSET 0.082453 -29.568058 -0.264600
					CHANNELS 3 Xrotation Yrotation Zrotation
					JOINT RightToeBase
					{
						OFFSET -3.115300 -8.682800 16.113400
						CHANNELS 3 Xrotation Yrotation Zrotation
						End Site
						{
							OFFSET 0.000000 18.567114 0.000000
						}
					}
				}
			}
			JOINT Right_ShortSleeve
			{
				OFFSET -0.265923 -10.480953 1.153800
				CHANNELS 3 Xrotation Yrotation Zrotation
				End Site
				{
					OFFSET -1.725766 19.823910 0.000000
				}
			}
		}
	}
	JOINT Spine
	{
		OFFSET 0.000000 13.368103 0.470500
		CHANNELS 3 Xrotation Yrotation Zrotation
		JOINT Spine1
		{
			OFFSET 0.147000 13.837402 0.538800
			CHANNELS 3 Xrotation Yrotation Zrotation
			JOINT Spine2
			{
				OFFSET 0.168000 16.242897 -1.435500
				CHANNELS 3 Xrotation Yrotation Zrotation
				JOINT Neck
				{
					OFFSET 0.217200 18.631500 -1.679100
					CHANNELS 3 Xrotation Yrotation Zrotation
					JOINT Head
					{
						OFFSET 0.000000 6.599396 1.385900
						CHANNELS 3 Xrotation Yrotation Zrotation
						JOINT Hat
						{
							OFFSET -0.532200 27.220596 -10.096100
							CHANNELS 3 Xrotation Yrotation Zrotation
							End Site
							{
								OFFSET 0.000000 22.029861 0.000000
							}
						}
						JOINT HairD
						{
							OFFSET -10.777400 17.437393 -1.325900
							CHANNELS 3 Xrotation Yrotation Zrotation
							JOINT HairD1
							{
								OFFSET -3.290299 -11.051193 1.062200
								CHANNELS 3 Xrotation Yrotation Zrotation
								End Site
								{
									OFFSET 0.000000 11.579437 0.000000
								}
							}
						}
						JOINT HairB
						{
							OFFSET -10.777400 17.437393 1.467900
							CHANNELS 3 Xrotation Yrotation Zrotation
							JOINT HairB1
							{
								OFFSET -1.561200 -12.956299 3.590200
								CHANNELS 3 Xrotation Yrotation Zrotation
								End Site
								{
									OFFSET 0.000000 13.534866 0.000000
								}
							}
						}
						JOINT HairA
						{
							OFFSET 9.713100 17.437393 1.467900
							CHANNELS 3 Xrotation Yrotation Zrotation
							JOINT HairA1
							{
								OFFSET 1.561200 -12.956299 3.590200
								CHANNELS 3 Xrotation Yrotation Zrotation
								End Site
								{
									OFFSET 0.000000 13.534866 0.000000
								}
							}
						}
						JOINT HairC
						{
							OFFSET 9.713100 17.437393 -1.325900
							CHANNELS 3 Xrotation Yrotation Zrotation
							JOINT HairC1
							{
								OFFSET 3.290300 -11.051193 1.062200
								CHANNELS 3 Xrotation Yrotation Zrotation
								End Site
								{
									OFFSET 0.000000 11.579437 0.000000
								}
							}
						}
					}
				}
				JOINT LeftShoulder
				{
					OFFSET 5.101800 15.108002 -2.763700
					CHANNELS 3 Xrotation Yrotation Zrotation
					JOINT LeftArm
					{
						OFFSET 9.825497 2.506317 -1.597400
						CHANNELS 3 Xrotation Yrotation Zrotation
						JOINT LeftForeArm
						{
							OFFSET 21.966244 0.000000 0.000000
							CHANNELS 3 Xrotation Yrotation Zrotation
							JOINT LeftHand
							{
								OFFSET 33.879036 0.000000 0.000000
								CHANNELS 3 Xrotation Yrotation Zrotation
								JOINT LeftHandThumb1
								{
									OFFSET 6.715286 -2.359680 3.363841
									CHANNELS 3 Xrotation Yrotation Zrotation
									JOINT LeftHandThumb2
									{
										OFFSET 2.507072 -1.447464 1.447461
										CHANNELS 3 Xrotation Yrotation Zrotation
										JOINT LeftHandThumb3
										{
											OFFSET 2.898338 -1.673355 1.673357
											CHANNELS 3 Xrotation Yrotation Zrotation
											End Site
											{
												OFFSET -0.295959 3.727692 -0.131651
											}
										}
									}
								}
								JOINT LeftHandIndex1
								{
									OFFSET 14.190811 -0.254547 3.840278
									CHANNELS 3 Xrotation Yrotation Zrotation
									JOINT LeftHandIndex2
									{
										OFFSET 3.551727 0.000000 -0.000000
										CHANNELS 3 Xrotation Yrotation Zrotation
										JOINT LeftHandIndex3
										{
											OFFSET 2.894196 0.000000 0.000000
											CHANNELS 3 Xrotation Yrotation Zrotation
											End Site
											{
												OFFSET -1.000603 2.690872 0.366626
											}
										}
									}
								}
								JOINT LeftHandMiddle1
								{
									OFFSET 13.776489 0.000000 0.000000
									CHANNELS 3 Xrotation Yrotation Zrotation
									JOINT LeftHandMiddle2
									{
										OFFSET 3.438232 0.000000 0.000000
										CHANNELS 3 Xrotation Yrotation Zrotation
										JOINT LeftHandMiddle3
										{
											OFFSET 3.691551 0.000000 0.000000
											CHANNELS 3 Xrotation Yrotation Zrotation
											End Site
											{
												OFFSET -1.082298 3.499527 0.457670
											}
										}
									}
								}
								JOINT LeftHandRing1
								{
									OFFSET 13.966164 -0.268127 -3.067488
									CHANNELS 3 Xrotation Yrotation Zrotation
									JOINT LeftHandRing2
									{
										OFFSET 3.162567 0.000000 0.000000
										CHANNELS 3 Xrotation Yrotation Zrotation
										JOINT LeftHandRing3
										{
											OFFSET 3.324348 0.000000 0.000000
											CHANNELS 3 Xrotation Yrotation Zrotation
											End Site
											{
												OFFSET -0.861900 3.184998 0.405154
											}
										}
									}
								}
								JOINT LeftHandPinky1
								{
									OFFSET 13.131393 -0.168503 -5.746925
									CHANNELS 3 Xrotation Yrotation Zrotation
									JOINT LeftHandPinky2
									{
										OFFSET 2.849182 0.000000 0.000000
										CHANNELS 3 Xrotation Yrotation Zrotation
										JOINT LeftHandPinky3
										{
											OFFSET 2.805038 0.000000 0.000000
											CHANNELS 3 Xrotation Yrotation Zrotation
											End Site
											{
												OFFSET -0.882500 2.642609 0.325652
											}
										}
									}
								}
							}
							JOINT Left_Sleeve
							{
								OFFSET 6.592125 -0.646545 0.805568
								CHANNELS 3 Xrotation Yrotation Zrotation
								End Site
								{
									OFFSET -0.000179 20.275787 -0.000000
								}
							}
						}
					}
				}
				JOINT RightShoulder
				{
					OFFSET -5.731700 15.108002 -2.763700
					CHANNELS 3 Xrotation Yrotation Zrotation
					JOINT RightArm
					{
						OFFSET -9.825497 2.506317 -1.597400
						CHANNELS 3 Xrotation Yrotation Zrotation
						JOINT RightForeArm
						{
							OFFSET -21.966242 0.000000 0.000000
							CHANNELS 3 Xrotation Yrotation Zrotation
							JOINT RightHand
							{
								OFFSET -33.879032 0.000000 0.000000
								CHANNELS 3 Xrotation Yrotation Zrotation
								JOINT RightHandThumb1
								{
									OFFSET -6.715286 -2.359680 3.363841
									CHANNELS 3 Xrotation Yrotation Zrotation
									JOINT RightHandThumb2
									{
										OFFSET -2.507072 -1.447464 1.447461
										CHANNELS 3 Xrotation Yrotation Zrotation
										JOINT RightHandThumb3
										{
											OFFSET -2.898338 -1.673355 1.673357
											CHANNELS 3 Xrotation Yrotation Zrotation
											End Site
											{
												OFFSET 0.295959 3.727692 -0.131651
											}
										}
									}
								}
								JOINT RightHandIndex1
								{
									OFFSET -14.190811 -0.254547 3.840278
									CHANNELS 3 Xrotation Yrotation Zrotation
									JOINT RightHandIndex2
									{
										OFFSET -3.551727 0.000000 -0.000000
										CHANNELS 3 Xrotation Yrotation Zrotation
										JOINT RightHandIndex3
										{
											OFFSET -2.894196 0.000000 0.000000
											CHANNELS 3 Xrotation Yrotation Zrotation
											End Site
											{
												OFFSET 1.000603 2.690872 0.366626
											}
										}
									}
								}
								JOINT RightHandMiddle1
								{
									OFFSET -13.776489 0.000000 0.000000
									CHANNELS 3 Xrotation Yrotation Zrotation
									JOINT RightHandMiddle2
									{
										OFFSET -3.438232 0.000000 0.000000
										CHANNELS 3 Xrotation Yrotation Zrotation
										JOINT RightHandMiddle3
										{
											OFFSET -3.691551 0.000000 0.000000
											CHANNELS 3 Xrotation Yrotation Zrotation
											End Site
											{
												OFFSET 1.082298 3.499527 0.457670
											}
										}
									}
								}
								JOINT RightHandRing1
								{
									OFFSET -13.966164 -0.268127 -3.067488
									CHANNELS 3 Xrotation Yrotation Zrotation
									JOINT RightHandRing2
									{
										OFFSET -3.162567 0.000000 0.000000
										CHANNELS 3 Xrotation Yrotation Zrotation
										JOINT RightHandRing3
										{
											OFFSET -3.324348 0.000000 0.000000
											CHANNELS 3 Xrotation Yrotation Zrotation
											End Site
											{
												OFFSET 0.861900 3.184998 0.405154
											}
										}
									}
								}
								JOINT RightHandPinky1
								{
									OFFSET -13.131393 -0.168503 -5.746925
									CHANNELS 3 Xrotation Yrotation Zrotation
									JOINT RightHandPinky2
									{
										OFFSET -2.849182 0.000000 0.000000
										CHANNELS 3 Xrotation Yrotation Zrotation
										JOINT RightHandPinky3
										{
											OFFSET -2.805038 0.000000 0.000000
											CHANNELS 3 Xrotation Yrotation Zrotation
											End Site
											{
												OFFSET 0.882500 2.642609 0.325652
											}
										}
									}
								}
							}
							JOINT Right_Sleeve
							{
								OFFSET -6.592125 -0.646545 0.805568
								CHANNELS 3 Xrotation Yrotation Zrotation
								End Site
								{
									OFFSET 0.000179 20.275787 -0.000000
								}
							}
						}
					}
				}
				JOINT Bind_Right_JacketString
				{
					OFFSET -3.534800 11.969597 7.200700
					CHANNELS 3 Xrotation Yrotation Zrotation
					JOINT Bind_Right_JacketString1
					{
						OFFSET -0.319900 -6.102600 2.794100
						CHANNELS 3 Xrotation Yrotation Zrotation
						End Site
						{
							OFFSET 0.000000 6.719452 0.000000
						}
					}
				}
				JOINT Bind_Left_JacketString
				{
					OFFSET 2.904800 11.969597 7.200700
					CHANNELS 3 Xrotation Yrotation Zrotation
					JOINT Bind_Left_JacketString1
					{
						OFFSET 0.364800 -5.904503 3.186800
						CHANNELS 3 Xrotation Yrotation Zrotation
						End Site
						{
							OFFSET 0.000000 6.719513 0.000000
						}
					}
				}
				JOINT HairE
				{
					OFFSET 5.915200 17.612701 -11.592200
					CHANNELS 3 Xrotation Yrotation Zrotation
					JOINT HairE1
					{
						OFFSET 0.289200 -7.171898 -1.284500
						CHANNELS 3 Xrotation Yrotation Zrotation
						End Site
						{
							OFFSET 0.000000 7.291756 0.000000
						}
					}
				}
				JOINT HairF
				{
					OFFSET -0.864800 17.612701 -11.592200
					CHANNELS 3 Xrotation Yrotation Zrotation
					JOINT HairF1
					{
						OFFSET 0.000000 -14.087097 -2.127501
						CHANNELS 3 Xrotation Yrotation Zrotation
						End Site
						{
							OFFSET 0.000000 14.246841 0.000000
						}
					}
				}
				JOINT HairG
				{
					OFFSET -8.087700 17.612701 -11.592200
					CHANNELS 3 Xrotation Yrotation Zrotation
					JOINT HairG1
					{
						OFFSET -0.293600 -6.081398 -0.910100
						CHANNELS 3 Xrotation Yrotation Zrotation
						End Site
						{
							OFFSET 0.000000 6.156120 0.000000
						}
					}
				}
			}
		}
	}
	JOINT Pouch
	{
		OFFSET 0.000000 4.394501 10.847300
		CHANNELS 3 Xrotation Yrotation Zrotation
		End Site
		{
			OFFSET 0.000000 21.880577 0.000000
		}
	}
	JOINT Bag
	{
		OFFSET -13.229000 4.813004 -0.593300
		CHANNELS 3 Xrotation Yrotation Zrotation
		End Site
		{
			OFFSET 0.000000 21.880577 0.000000
		}
	}
	JOINT OccupyGuyFacialAnim_Joint
	{
		OFFSET 1.000000 -70.206398 -1.655000
		CHANNELS 3 Xrotation Yrotation Zrotation
		End Site
		{
			OFFSET 0.000000 21.880577 0.000000
		}
	}
}
MOTION
Frames: 4
Frame Time: 0.016667
-0.992423 70.135384 -0.208194 1.168553 6.160569 5.712165 -0.000000 -0.000000 -0.000000 -7.096287 6.289642 -0.173979 16.372308 4.831705 0.234315 -8.362523 0.597530 -4.973382 -0.000000 -0.000001 0.000000 0.000000 0.000000 -0.000000 -11.983587 -11.714628 -12.583786 26.036760 -0.582160 -1.964581 -15.177503 -8.361997 6.699801 0.000000 0.000002 -0.000000 0.000002 -0.000000 -0.000000 8.191137 -0.968724 6.608840 1.977285 -0.412823 1.344541 1.971135 -0.404076 1.350294 1.471613 0.251578 3.770396 -5.997193 -13.685524 -0.924703 -0.000000 -0.000000 0.000001 -0.000000 -0.000000 0.000001 -0.000000 -0.000000 0.000000 -0.000000 -0.000000 0.000000 -0.000001 -0.000000 0.000000 -0.000000 -0.000000 0.000000 -0.000001 -0.000000 0.000000 -0.000000 -0.000000 0.000001 -0.000000 -0.000000 0.000001 0.635346 -5.283651 -12.880635 5.726501 -4.951276 -42.398638 0.000007 -65.564379 -0.000010 -5.370037 -8.061435 -58.939669 -7.220021 -16.942344 15.004590 8.206671 0.329540 4.976428 0.000002 -0.000001 0.000004 -0.931686 -1.396870 -13.797126 1.148778 3.485777 -36.471004 -0.000001 0.000001 -0.000000 0.832893 5.259388 -29.649155 1.128764 3.458564 -36.139969 0.000005 0.000003 -0.000004 6.569943 12.601581 -38.071232 2.521131 4.813795 -55.264659 0.000001 0.000000 -0.000001 9.474781 25.638744 -47.959987 1.102900 3.422968 -35.709629 -0.000000 0.000002 -0.000000 0.000001 0.000001 -0.000000 1.688116 19.320706 11.981016 -17.246737 18.683081 60.973133 -0.001706 95.131756 0.001709 -19.139416 -6.743522 -4.913982 17.887651 49.319044 12.919634 30.991942 -39.602868 28.049271 -0.000004 0.000002 0.000003 3.343371 -6.897300 53.623269 1.487418 -3.413743 47.076519 -0.000000 -0.000001 0.000000 3.298276 -6.778213 63.367032 1.097395 -3.004787 40.118178 -0.000002 -0.000001 0.000001 5.188514 -7.512407 67.475876 0.689934 -2.441255 31.557414 0.000002 -0.000001 -0.000000 0.768520 -22.546642 59.828912 1.001589 -2.887413 38.254134 -0.000001 -0.000001 0.000004 -0.000002 0.000000 0.000001 -0.000000 0.000000 0.000000 -0.000000 0.000000 0.000000 -0.000000 0.000000 0.000000 -0.000000 0.000000 0.000000 -0.000000 0.000000 0.000000 -0.000000 0.000000 0.000000 -0.000000 0.000000 0.000000 -0.000000 0.000000 0.000000 -0.000000 0.000000 0.000000 -0.000000 0.000000 0.000000 -0.000000 -0.000000 -0.000000 -0.000000 -0.000000 -0.000000 -0.000000 -0.000000 -0.000000 
-0.969786 70.132294 -0.164668 1.139093 6.091686 5.720471 0.000000 -0.000001 -0.000000 -7.006207 6.318906 -0.192849 16.391841 4.857671 0.221784 -8.466489 0.596805 -4.915517 0.000000 0.000001 0.000000 -0.000001 0.000000 0.000000 -11.851852 -11.420097 -12.527773 26.025710 -0.807642 -1.965550 -15.194024 -8.391056 6.780731 0.000000 0.000001 0.000000 0.000000 0.000000 0.000000 8.157507 -1.118699 6.613550 1.971239 -0.454235 1.335349 1.964733 -0.445018 1.341882 1.502337 0.283004 3.704580 -6.423699 -13.408002 -1.036774 0.000000 -0.000000 0.000000 0.000000 -0.000000 0.000000 0.000000 -0.000000 -0.000000 0.000000 -0.000000 -0.000000 -0.000000 0.000000 -0.000000 0.000000 -0.000000 -0.000000 -0.000000 0.000000 -0.000000 0.000000 -0.000000 0.000000 0.000000 -0.000000 0.000000 0.638346 -5.316639 -12.830687 5.804760 -5.004720 -42.414945 -0.000017 -65.564297 -0.000051 -5.414951 -8.062178 -59.000690 -7.220020 -16.942344 15.004589 8.205382 0.326297 4.976852 0.000002 0.000001 0.000005 -0.925469 -1.417182 -13.702036 1.148254 3.485067 -36.462190 0.000002 -0.000001 -0.000000 0.830598 5.255390 -29.604082 1.128889 3.458729 -36.142144 0.000001 0.000000 0.000004 6.563240 12.601768 -38.034561 2.517027 4.810956 -55.215758 -0.000001 -0.000001 -0.000004 9.464118 25.640242 -47.933018 1.103971 3.424453 -35.727528 -0.000002 0.000002 -0.000000 0.000003 0.000001 -0.000001 1.742142 19.638221 11.894627 -14.648418 20.367928 60.669176 0.000047 96.789962 -0.000066 -19.473455 -6.938352 -5.387755 16.983733 48.490402 13.131477 30.991966 -39.602851 28.049277 0.000001 0.000001 0.000003 3.357179 -6.907526 53.814671 1.499360 -3.424785 47.276681 -0.000001 0.000001 -0.000003 3.331225 -6.794231 63.393567 1.109705 -3.019326 40.352491 -0.000001 -0.000002 0.000001 5.186933 -7.514243 67.421876 0.696330 -2.451626 31.707336 0.000000 0.000001 0.000002 0.773494 -22.549316 59.891429 0.988323 -2.870543 37.990304 -0.000002 -0.000002 0.000004 -0.000001 0.000002 0.000004 0.000001 0.000000 0.000001 0.000001 0.000000 0.000000 0.000001 0.000000 0.000001 0.000001 0.000000 0.000001 0.000001 0.000000 0.000001 0.000001 0.000000 0.000001 0.000001 0.000000 0.000001 0.000001 0.000000 0.000001 0.000001 0.000000 0.000001 0.000001 0.000000 0.000001 0.000000 -0.000001 -0.000000 0.000000 -0.000001 -0.000000 0.000000 -0.000001 -0.000000 
-0.948345 70.128922 -0.124040 1.105609 6.015874 5.711609 0.000000 -0.000000 -0.000000 -6.914786 6.345438 -0.184559 16.400046 4.888185 0.206772 -8.540241 0.597963 -4.918832 -0.000000 0.000004 -0.000000 0.000000 0.000001 -0.000000 -11.710522 -11.124278 -12.452354 26.004777 -1.033296 -1.966434 -15.202925 -8.418059 6.858059 -0.000000 -0.000001 0.000000 0.000000 0.000000 0.000000 8.123240 -1.297155 6.616079 1.966687 -0.503289 1.325314 1.959777 -0.493537 1.332816 1.524708 0.316484 3.633393 -6.840201 -13.129492 -1.161062 0.000001 0.000000 -0.000001 0.000001 0.000000 -0.000001 0.000001 0.000000 -0.000002 0.000001 0.000000 -0.000002 0.000001 0.000000 -0.000002 0.000001 0.000000 -0.000002 0.000001 0.000000 -0.000002 0.000001 0.000000 -0.000001 0.000001 0.000000 -0.000001 0.638522 -5.362369 -12.762705 5.906802 -5.087484 -42.408812 0.000005 -65.558608 -0.000004 -5.511698 -8.054018 -59.056411 -7.220025 -16.942337 15.004587 8.201845 0.319205 4.980763 0.000000 0.000005 -0.000005 -0.919218 -1.438402 -13.606787 1.147718 3.484387 -36.453850 0.000000 -0.000002 -0.000004 0.828536 5.251746 -29.562889 1.128919 3.458812 -36.143264 0.000001 0.000000 0.000002 6.558694 12.601982 -38.009224 2.513622 4.808587 -55.175395 0.000000 -0.000003 -0.000001 9.456724 25.641300 -47.914320 1.106378 3.427783 -35.767617 -0.000001 0.000000 -0.000001 0.000002 0.000001 -0.000002 1.812174 19.996176 11.753381 -12.150134 22.247782 60.206034 -0.000324 98.202588 0.000320 -19.507437 -7.108525 -5.826931 16.072077 47.646310 13.324295 30.992000 -39.602844 28.049304 0.000001 -0.000001 0.000001 3.371435 -6.918037 54.010964 1.511625 -3.436076 47.481935 -0.000000 0.000002 0.000002 3.365038 -6.810634 63.420786 1.122400 -3.034162 40.592781 -0.000001 -0.000001 -0.000003 5.185258 -7.516117 67.366490 0.702900 -2.462258 31.861104 0.000001 -0.000000 0.000002 0.778643 -22.552067 59.955544 0.974795 -2.853194 37.719768 0.000000 0.000002 -0.000003 0.000000 0.000000 0.000001 0.000001 0.000000 0.000001 0.000001 0.000000 0.000001 0.000001 0.000000 0.000001 0.000001 0.000000 0.000001 0.000001 0.000000 0.000001 0.000001 0.000000 0.000001 0.000001 0.000000 0.000001 0.000001 0.000000 0.000001 0.000001 0.000000 0.000001 0.000001 0.000000 0.000001 0.000000 -0.000000 -0.000000 0.000000 -0.000000 -0.000000 0.000000 -0.000000 -0.000000 
-0.923140 70.126366 -0.085265 1.079271 5.958709 5.691834 -0.000000 -0.000000 0.000000 -6.834039 6.373352 -0.168393 16.403442 4.895594 0.190196 -8.614097 0.598444 -4.910400 0.000000 0.000002 -0.000000 0.000001 -0.000001 -0.000000 -11.562584 -10.825781 -12.365425 25.964090 -1.284885 -1.967303 -15.200227 -8.444492 6.943825 0.000000 -0.000002 0.000000 -0.000000 0.000000 -0.000000 8.093130 -1.498904 6.612150 1.963648 -0.558698 1.313115 1.956317 -0.548352 1.321720 1.539979 0.351073 3.559211 -7.224476 -12.849048 -1.292572 -0.000000 -0.000000 0.000000 -0.000000 -0.000000 0.000000 -0.000000 -0.000000 -0.000000 -0.000000 -0.000000 -0.000001 -0.000001 -0.000001 -0.000001 -0.000000 -0.000000 -0.000001 -0.000001 -0.000001 -0.000001 -0.000000 -0.000000 0.000000 -0.000000 -0.000000 0.000000 0.637408 -5.414065 -12.664164 6.031524 -5.194028 -42.395247 0.000000 -65.552092 -0.000001 -5.622258 -8.057224 -59.067428 -7.220021 -16.942342 15.004589 8.194846 0.306806 4.986431 0.000001 0.000002 -0.000004 -0.913705 -1.457640 -13.524769 1.147205 3.483636 -36.444913 0.000002 -0.000001 -0.000004 0.826828 5.248746 -29.529206 1.129005 3.458921 -36.144350 0.000002 -0.000003 0.000002 6.557019 12.602168 -37.999539 2.511954 4.807443 -55.155205 -0.000002 0.000001 0.000001 9.453356 25.641787 -47.905775 1.108092 3.430149 -35.796246 -0.000001 0.000002 -0.000000 0.000002 -0.000002 0.000001 1.891719 20.393152 11.594518 -9.757496 24.346233 59.504082 0.000443 99.316941 -0.000447 -19.132772 -7.232196 -6.153896 15.156436 46.791345 13.496807 30.992038 -39.602820 28.049299 0.000000 -0.000001 0.000000 3.386093 -6.928682 54.211229 1.524207 -3.447537 47.691352 -0.000001 -0.000001 0.000004 3.399550 -6.827330 63.448551 1.135397 -3.049261 40.837967 0.000000 -0.000001 0.000004 5.183513 -7.518001 67.309984 0.709667 -2.473093 32.018090 0.000003 -0.000000 -0.000001 0.783937 -22.554845 60.020977 0.961099 -2.835416 37.443756 0.000001 -0.000001 -0.000001 0.000000 0.000001 -0.000003 0.000001 -0.000000 -0.000001 0.000001 -0.000001 -0.000001 0.000001 -0.000000 -0.000001 0.000001 -0.000000 -0.000001 0.000001 -0.000000 -0.000001 0.000001 -0.000001 -0.000001 0.000001 -0.000000 -0.000001 0.000001 -0.000000 -0.000001 0.000001 -0.000000 -0.000001 0.000001 -0.000001 -0.000001 -0.000000 -0.000000 0.000000 -0.000000 -0.000000 0.000000 -0.000000 -0.000000 0.000000 
